<svg width="24" height="24" viewBox="0 0 24 24" fill="none" xmlns="http://www.w3.org/2000/svg">
  <path d="M14.5 12.5c0 .7-.1 1.2-.4 1.7-.2.4-.6.6-1 .6-.6 0-.9-.4-.9-1.3V9.8h-1.3v4c0 .9.1 1.5.4 1.9.3.4.7.6 1.3.6.7 0 1.2-.3 1.7-.9h0l.1.8h1.2c0-.3-.1-.7-.1-1.2v-5.3h-1.3v3.8h.3zm3.5-2.7c-.7 0-1.2.3-1.6.8h0V7h-1.3v8h1.1l.1-.8h0c.4.6.9.9 1.6.9 1.2 0 2-1 2-2.6 0-1.7-.7-2.7-1.9-2.7zm-.4 4.3c-.6 0-1-.5-1-1.2v-.2c0-.8.4-1.3 1-1.3.7 0 1.1.6 1.1 1.7 0 1-.4 1.7-1.1 1.7v-.7z" fill="#FF9900"/>
  <path d="M19.5 17.5c-2.6 1.9-6.4 2.9-9.6 2.9-4.5 0-8.6-1.7-11.7-4.4-.2-.2 0-.5.3-.3 3.4 2 7.6 3.2 12 3.2 2.9 0 6.2-.6 9.1-1.9.5-.2.8.3.4.7l-.5-.2z" fill="#FF9900"/>
  <path d="M20.8 16c-.3-.4-2.2-.2-3 0-.2 0-.3-.2 0-.4 1.5-1 3.9-.7 4.2-.4.3.4-.1 2.8-1.5 4-.2.2-.4.1-.3-.1.3-.7.9-2.3.6-2.7v-.4z" fill="#FF9900"/>
</svg>

