<svg width="24" height="24" viewBox="0 0 24 24" fill="none" xmlns="http://www.w3.org/2000/svg">
  <path d="M16.5 4.5c-.1-.3-.4-.5-.7-.5-.1 0-2.8-.2-2.8-.2s-1.8-1.8-2-2c-.2-.2-.6-.1-.8-.1 0 0-.4.1-.9.3-.5-1.4-1.3-2.7-2.8-2.7h-.2C5.4.1 4.9 1.5 4.6 2.5c-1.2.4-2 .6-2.1.7-.6.2-.6.2-.7.8C1.7 4.5 0 17.5 0 17.5L14.5 20l6.5-1.4S16.6 4.8 16.5 4.5zM11 2.9c-.5.2-1 .3-1.6.5V2.8c0-.9-.1-1.6-.4-2.1.9.1 1.6.9 2 2.2zm-2.5-2c.2.4.3 1 .3 1.9v.3c-.9.3-1.9.6-2.9.9.3-1.2 1-2.3 2.6-3.1zm-.9 11.6c.1 1.7 4.4 2.1 4.6 6.1.2 3.1-1.6 5.2-4.3 5.4-3.2.2-5-1.7-5-1.7l.7-2.9s1.7 1.3 3.1 1.2c.9 0 1.3-.7 1.2-1.2-.2-1.9-3.6-1.8-3.8-5.7-.2-3.2 1.9-6.4 6.5-6.7 1.8-.1 2.6.3 2.6.3l-1 3.8s-1.2-.5-2.6-.4c-2.1.1-2.2 1.5-2 1.8z" fill="#95BF47"/>
</svg>

